<svg xmlns="http://www.w3.org/2000/svg" viewBox="0 0 100 100" fill="none">
  <defs>
    <linearGradient id="brainFill" x1="0%" y1="0%" x2="100%" y2="100%">
      <stop offset="0%" style="stop-color:#4A90E2;stop-opacity:1" />
      <stop offset="100%" style="stop-color:#357ABD;stop-opacity:1" />
    </linearGradient>
  </defs>
  
  <!-- Brain outline exactly like the reference -->
  <g transform="translate(12, 15)">
    <!-- Main brain shape -->
    <path d="M 38 10
             C 48 8, 58 12, 62 22
             C 66 30, 64 38, 60 44
             C 58 48, 54 52, 48 54
             C 44 56, 40 56, 36 54
             C 30 52, 26 48, 24 44
             C 20 38, 18 30, 22 22
             C 26 12, 32 8, 38 10 Z" 
          fill="url(#brainFill)" 
          stroke="#357ABD" 
          stroke-width="2"/>
    
    <!-- Circuit lines - horizontal -->
    <g stroke="#5BA3F5" stroke-width="2" fill="none">
      <path d="M 28 20 L 34 20 M 44 20 L 52 20"/>
      <path d="M 26 28 L 36 28 M 44 28 L 54 28"/>
      <path d="M 28 36 L 34 36 M 44 36 L 52 36"/>
      <path d="M 30 44 L 36 44 M 44 44 L 50 44"/>
    </g>
    
    <!-- Circuit lines - vertical -->
    <g stroke="#5BA3F5" stroke-width="2" fill="none">
      <path d="M 30 18 L 30 24 M 30 26 L 30 30 M 30 34 L 30 38 M 30 42 L 30 46"/>
      <path d="M 38 18 L 38 24 M 38 26 L 38 30 M 38 34 L 38 38 M 38 42 L 38 46"/>
      <path d="M 46 18 L 46 24 M 46 26 L 46 30 M 46 34 L 46 38 M 46 42 L 46 46"/>
      <path d="M 54 22 L 54 26 M 54 30 L 54 34 M 54 38 L 54 42"/>
    </g>
    
    <!-- Circuit connection nodes -->
    <g fill="#5BA3F5">
      <circle cx="30" cy="20" r="1.5"/>
      <circle cx="38" cy="20" r="1.5"/>
      <circle cx="46" cy="20" r="1.5"/>
      <circle cx="30" cy="28" r="1.5"/>
      <circle cx="38" cy="28" r="1.5"/>
      <circle cx="46" cy="28" r="1.5"/>
      <circle cx="54" cy="28" r="1.5"/>
      <circle cx="30" cy="36" r="1.5"/>
      <circle cx="38" cy="36" r="1.5"/>
      <circle cx="46" cy="36" r="1.5"/>
      <circle cx="30" cy="44" r="1.5"/>
      <circle cx="38" cy="44" r="1.5"/>
      <circle cx="46" cy="44" r="1.5"/>
    </g>
  </g>
</svg>