<svg xmlns="http://www.w3.org/2000/svg" viewBox="0 0 120 120" fill="none">
  <defs>
    <linearGradient id="brainGradient" x1="0%" y1="0%" x2="100%" y2="100%">
      <stop offset="0%" style="stop-color:#00BCD4;stop-opacity:1" />
      <stop offset="50%" style="stop-color:#8BC34A;stop-opacity:1" />
      <stop offset="100%" style="stop-color:#FF5722;stop-opacity:1" />
    </linearGradient>
    <linearGradient id="circleGradient" x1="0%" y1="0%" x2="100%" y2="100%">
      <stop offset="0%" style="stop-color:#00BCD4;stop-opacity:0.2" />
      <stop offset="100%" style="stop-color:#8BC34A;stop-opacity:0.3" />
    </linearGradient>
  </defs>
  
  <!-- Outer glow circle -->
  <circle cx="60" cy="60" r="55" fill="url(#circleGradient)" opacity="0.6"/>
  
  <!-- Brain/Neural network design -->
  <g transform="translate(30, 30)">
    <!-- Central nodes -->
    <circle cx="30" cy="30" r="4" fill="url(#brainGradient)"/>
    <circle cx="15" cy="20" r="3" fill="url(#brainGradient)"/>
    <circle cx="45" cy="25" r="3" fill="url(#brainGradient)"/>
    <circle cx="20" cy="45" r="3" fill="url(#brainGradient)"/>
    <circle cx="40" cy="45" r="3" fill="url(#brainGradient)"/>
    <circle cx="30" cy="15" r="2.5" fill="url(#brainGradient)"/>
    <circle cx="50" cy="40" r="2.5" fill="url(#brainGradient)"/>
    <circle cx="10" cy="35" r="2.5" fill="url(#brainGradient)"/>
    
    <!-- Connecting lines -->
    <path d="M 30 30 L 15 20 M 30 30 L 45 25 M 30 30 L 20 45 M 30 30 L 40 45" 
          stroke="url(#brainGradient)" stroke-width="1.5" opacity="0.7"/>
    <path d="M 15 20 L 30 15 M 45 25 L 50 40 M 20 45 L 10 35" 
          stroke="url(#brainGradient)" stroke-width="1" opacity="0.5"/>
    <path d="M 40 45 L 50 40 M 30 15 L 45 25" 
          stroke="url(#brainGradient)" stroke-width="1" opacity="0.5"/>
    
    <!-- Additional neural connections -->
    <circle cx="35" cy="55" r="2" fill="url(#brainGradient)" opacity="0.8"/>
    <circle cx="55" cy="20" r="2" fill="url(#brainGradient)" opacity="0.8"/>
    <circle cx="5" cy="50" r="1.5" fill="url(#brainGradient)" opacity="0.6"/>
    
    <path d="M 30 30 L 35 55 M 45 25 L 55 20 M 10 35 L 5 50" 
          stroke="url(#brainGradient)" stroke-width="0.8" opacity="0.4"/>
  </g>
  
  <!-- Creative spark elements -->
  <g transform="translate(80, 25)">
    <polygon points="0,0 3,8 0,6 -3,8" fill="#FFEB3B" opacity="0.8"/>
  </g>
  <g transform="translate(25, 80)">
    <polygon points="0,0 2,6 0,4 -2,6" fill="#FF5722" opacity="0.7"/>
  </g>
  <g transform="translate(90, 75)">
    <polygon points="0,0 2.5,7 0,5 -2.5,7" fill="#8BC34A" opacity="0.8"/>
  </g>
</svg>